<svg width="31" height="31" viewBox="0 0 31 31" fill="none" xmlns="http://www.w3.org/2000/svg">
    <path fill-rule="evenodd" clip-rule="evenodd" d="M13.092.255a6.036 6.036 0 0 0-3.955 2.674c-1.71 2.68-1.078 6.283 1.433 8.17.216.162.325.278.278.295-.044.015-.233.072-.42.126-.188.053-.392.149-.452.21-.202.207-.115.606.154.71.107.042.326.005.874-.149a11.459 11.459 0 0 1 6.456.07c.485.148.515.15.659.054.188-.126.276-.348.208-.529-.073-.196-.163-.255-.577-.378-.202-.061-.373-.126-.379-.145-.006-.018.198-.206.453-.417a6.797 6.797 0 0 0 1.15-1.234c.091-.135.099-.136.452-.052.198.046.374.099.39.116.018.017 0 .252-.039.521-.146 1.024.009 2.17.382 2.827a3.48 3.48 0 0 0 3.526 1.703c.842-.134 1.386-.554 1.729-1.338.094-.215.186-.392.205-.393.02 0 .18.206.358.46.358.51.717 1.21.924 1.802.288.823.497.998 1.628 1.367 1.114.363 1.11.355 1.11 1.97 0 .77-.024 1.244-.066 1.327-.164.325-.302.398-1.488.787-1.323.434-1.419.493-1.799 1.098-.748 1.189-1.698 2.11-2.947 2.857-.632.378-.742.458-.841.618-.046.072-.23.934-.412 1.916-.181.982-.36 1.806-.399 1.83-.116.076-2.243.057-2.29-.02-.022-.037-.128-.54-.236-1.117-.19-1.03-.199-1.053-.407-1.25-.24-.226-.09-.22-1.569-.062-.414.045-1.23.058-2.305.037-1.757-.033-1.832-.024-2.013.24-.048.07-.168.565-.266 1.099-.099.534-.207 1.005-.24 1.046-.087.106-2.224.107-2.306 0-.03-.041-.193-.812-.36-1.712-.168-.901-.336-1.705-.375-1.787-.038-.081-.193-.229-.345-.327-.935-.606-1.168-.773-1.577-1.13a7.535 7.535 0 0 1-2.02-2.92c-1.03-2.712-.651-6.075.928-8.242.441-.606 1.258-1.387 1.899-1.817.287-.192.555-.392.595-.443.13-.165.09-.465-.08-.602-.211-.17-.296-.157-.71.1a7.902 7.902 0 0 0-1.645 1.327c-1.122 1.148-1.865 2.554-2.211 4.184-.067.317-.122.59-.122.608 0 .017-.023.03-.05.03-.028 0-.068-.143-.088-.319-.098-.857-.675-1.564-1.402-1.72-.268-.057-.353-.051-.59.041-.56.218-.945.824-.89 1.4.05.54.432.893 1.272 1.176.255.086.464.175.464.198 0 .085-.574.587-.813.712-.136.07-.435.165-.664.21-.458.089-.623.222-.623.502 0 .175.182.382.391.447.207.064.832-.08 1.24-.283.42-.21 1.123-.877 1.314-1.247.067-.13.158-.223.219-.223.092 0 .103.067.103.64.002 2.026.482 3.748 1.468 5.266.513.79 1.53 1.81 2.353 2.36.353.235.684.462.736.503.067.053.167.473.338 1.415.334 1.838.382 2.016.605 2.255.32.343.431.366 1.8.366 1.142 0 1.258-.01 1.493-.127.4-.197.52-.44.71-1.446.09-.48.176-.886.19-.9.013-.013.43.003.926.037a13.4 13.4 0 0 0 2.01-.013 47.37 47.37 0 0 1 1.37-.079l.26-.003.152.804c.202 1.077.207 1.094.388 1.314.304.369.487.41 1.842.411 1.263.002 1.481-.033 1.752-.283.22-.205.302-.492.62-2.181l.324-1.722.602-.376c1.253-.784 2.302-1.785 3.015-2.877l.39-.6 1.184-.389c1.343-.441 1.587-.586 1.865-1.107.16-.3.174-.376.208-1.184.02-.475.018-1.16-.003-1.523-.034-.571-.062-.703-.208-.976-.253-.476-.557-.677-1.448-.96-.466-.149-.812-.294-.886-.372-.068-.071-.183-.303-.256-.516-.293-.852-.843-1.806-1.48-2.57l-.327-.39.092-.5c.124-.677.175-2.4.085-2.908-.129-.731-.435-1.138-.93-1.235-.608-.118-2.578.486-4.277 1.313l-.507.246-.387-.1c-.213-.054-.4-.113-.416-.13-.016-.016.036-.216.117-.444.308-.872.417-1.824.238-2.084-.067-.098-.149-.132-.316-.132-.325 0-.44.174-.487.733-.14 1.702-1.29 3.346-2.866 4.099-.37.176-.37.176-.965.114-.763-.08-1.65-.08-2.378.001-.555.062-.585.06-.906-.085-.988-.447-1.92-1.369-2.417-2.39-.975-2.006-.59-4.39.959-5.957.682-.69 1.44-1.122 2.41-1.374.62-.161 1.775-.148 2.417.028a5.15 5.15 0 0 1 3.089 2.392c.148.253.31.477.36.497a.442.442 0 0 0 .608-.41c0-.348-.58-1.213-1.263-1.884A5.712 5.712 0 0 0 15.582.367c-.693-.184-1.855-.236-2.49-.112zM14.134 3.1a.343.343 0 0 0-.07.208c0 .097-.033.137-.114.137-.063 0-.257.055-.432.122-.55.21-.911.727-.911 1.308 0 .699.44 1.188 1.355 1.509.092.032.103.133.103.962v.926l-.16-.04a2.13 2.13 0 0 1-.76-.406c-.22-.189-.443-.196-.565-.02-.302.442.23 1.008 1.104 1.173.189.036.352.065.362.065.01 0 .019.063.019.141 0 .21.143.31.322.226.103-.048.144-.114.144-.232 0-.15.031-.174.353-.271.826-.248 1.23-1.118.956-2.06-.115-.399-.417-.71-.924-.958l-.385-.188v-.77c0-.762.002-.772.131-.77.073.002.273.065.446.141.383.169.519.141.629-.128.074-.182.073-.221-.011-.353-.107-.167-.352-.287-.699-.345-.45-.075-.496-.093-.496-.2 0-.131-.11-.249-.233-.249a.265.265 0 0 0-.164.072zm-.303 1.127c-.288.117-.408.29-.408.587 0 .225.03.305.16.43.172.163.377.286.478.286.04 0 .062-.24.062-.685 0-.73-.003-.736-.292-.618zm.642 3.184v.812l.16-.04c.354-.088.566-.496.476-.917-.049-.224-.237-.455-.476-.582l-.16-.085v.812zm9.595 1.035c-1.16.316-3.066 1.122-3.244 1.372-.22.31-.295 1.512-.137 2.198.177.766.637 1.347 1.327 1.676.803.383 1.95.333 2.325-.1.347-.402.739-1.672.87-2.819.086-.765.05-2.047-.067-2.295-.113-.242-.283-.247-1.074-.032zM2.044 15.353c-.25.255-.214.415.131.59.15.076.408.174.573.219l.3.08-.04-.189a1.16 1.16 0 0 0-.357-.644c-.267-.254-.401-.266-.607-.056zm20.944.824c-.216.28-.073.863.31 1.266.72.756 2.003.47 2.35-.522.184-.528.036-.908-.355-.908a.43.43 0 0 0-.437.424c0 .09-.068.245-.151.346-.3.364-.86.181-.937-.307-.049-.31-.198-.463-.454-.463-.148 0-.232.042-.326.164zM.662 18.574c0 .115.012.162.027.104a.498.498 0 0 0 0-.208c-.015-.057-.027-.01-.027.104z" fill="#454545"/>
</svg>
