<svg width="24" height="31" viewBox="0 0 24 31" fill="none" xmlns="http://www.w3.org/2000/svg">
    <path fill-rule="evenodd" clip-rule="evenodd" d="M13.68.29a2.246 2.246 0 0 0-.502.3c-.226.19-.553.711-.554.882 0 .153-.084.17-.323.067-.32-.139-.953-.128-1.285.022-.375.17-.707.499-.891.883-.157.325-.16.351-.178 1.57l-.02 1.24-.21-.094c-.314-.14-.949-.13-1.273.02a2.04 2.04 0 0 0-.898.86l-.152.296-.017 2.666-.016 2.665-.131.034c-.241.062-.647.486-.781.817l-.127.313-.264-.083c-.751-.236-1.616.277-1.837 1.09-.03.113-.056.577-.056 1.03 0 .745.01.839.118.978.148.193.454.21.624.037.103-.105.115-.195.115-.907 0-1.095.133-1.37.662-1.37a.58.58 0 0 1 .593.455c.034.127.059.966.059 2.028 0 2.06.003 2.071.4 2.071.17 0 .248-.035.34-.154.115-.15.118-.213.118-2.604 0-2.183.01-2.468.095-2.615a.625.625 0 0 1 .853-.23c.306.168.31.2.31 2.848 0 2.388.002 2.451.118 2.601.135.176.415.209.599.071.105-.078.112-.189.14-2.127l.028-2.045.167-.178c.213-.227.472-.28.738-.151.375.182.381.221.381 2.708 0 2.21 0 2.223.125 2.341a.412.412 0 0 0 .614-.035c.11-.143.118-.229.118-1.287 0-1.367.03-1.455.525-1.616.16-.052.492.075.616.235.114.148.117.221.116 2.582-.001 2.715-.023 2.927-.373 3.68-.307.662-.691 1.099-1.44 1.64L10.68 24v2.884c0 2.715.006 2.89.106 3.016.152.193.444.18.618-.026l.134-.159V24.476l.275-.206c.777-.583 1.368-1.511 1.656-2.602l.147-.56.004-2.568c.004-2.867.017-2.766-.401-3.239-.304-.344-.606-.49-1.024-.494a2.587 2.587 0 0 0-.529.044l-.186.049v-.491c0-.8-.232-1.272-.79-1.606-.221-.132-.334-.16-.667-.16-.22 0-.477.02-.572.044-.162.043-.176.032-.276-.216-.116-.292-.464-.643-.759-.77l-.194-.082.002-2.466c0-2.306.008-2.483.11-2.714.276-.62 1.135-.654 1.49-.06.107.181.113.298.113 2.334 0 1.468.02 2.188.065 2.288.095.213.367.314.557.205.296-.17.29-.087.292-4.361V2.857l.221-.241c.203-.222.248-.244.558-.264.422-.028.665.11.824.467.104.234.11.419.111 3.498l.001 3.251.151.121c.191.154.365.154.556 0l.15-.12V5.687c0-3.146.015-3.917.079-4.072.102-.25.39-.492.64-.54.278-.053.675.11.838.345l.13.185.028 3.99.029 3.991.135.112a.457.457 0 0 0 .587 0l.135-.112.029-3.319c.032-3.749.002-3.517.492-3.76.426-.21.91-.024 1.11.428.106.238.11.447.111 5.546l.002 5.299h-.415a3.349 3.349 0 0 0-2.26.902c-.621.579-.774.935-.508 1.19.242.233.418.172.865-.297.439-.46.895-.742 1.395-.861.402-.096 1.065-.05 1.323.09.254.14.812.144 1.066.01.216-.116.426-.368 1.532-1.837.483-.642.93-1.177 1.043-1.248.151-.096.258-.118.47-.097.36.036.6.216.722.542.175.47.137.536-1.78 3.073-2.297 3.039-2.688 3.422-3.902 3.822-.677.222-.647.104-.626 2.51.017 1.917.02 1.951.143 2.077.18.184.457.17.626-.03l.134-.16v-3.546l.215-.07c.66-.212 1.582-.87 2.147-1.528.507-.593 3.685-4.817 3.825-5.085.103-.199.128-.34.127-.742 0-.424-.022-.54-.152-.792a2.18 2.18 0 0 0-.8-.825c-.145-.08-.316-.105-.732-.105-.867 0-.986.098-2.4 1.985-1.02 1.363-.911 1.232-1.072 1.282l-.129.04V8.569c0-6.38.039-5.912-.538-6.5-.582-.596-1.18-.702-1.977-.353-.066.029-.109-.043-.183-.302A1.806 1.806 0 0 0 15.06.368c-.4-.208-.978-.24-1.38-.077zM4.412 17.343c-.204.086-.247.25-.247.957 0 .37-.023.686-.051.704-.029.018-.264-.21-.522-.507-.73-.84-.983-.997-1.599-.997-.568 0-1.095.354-1.334.895-.165.375-.158.938.018 1.284.197.389 3.028 3.569 3.658 4.109.292.25.566.47.61.486.064.025.078.5.078 2.736v2.706l.134.16a.42.42 0 0 0 .609.051c.113-.105.115-.16.1-3.086l-.015-2.98-.513-.398c-.687-.533-.903-.754-2.495-2.553-.868-.98-1.383-1.609-1.413-1.723-.145-.555.391-.977.9-.708.088.047.376.338.64.647.504.59.779.788 1.093.786.276-.002.637-.191.794-.416.127-.182.138-.258.155-1.046.017-.753.007-.864-.085-.976a.456.456 0 0 0-.515-.131zm12.583 7.998c-.282.115-.283.124-.3 2.254-.015 1.665-.004 2.036.067 2.208.095.233.299.32.542.234.28-.101.291-.192.292-2.37.001-2.02 0-2.026-.127-2.17-.151-.17-.312-.222-.474-.156z" fill="#454545"/>
</svg>
