<svg width="31" height="31" viewBox="0 0 31 31" fill="none" xmlns="http://www.w3.org/2000/svg">
    <path fill-rule="evenodd" clip-rule="evenodd" d="M19.364.969c-.112.036-.339.198-.503.36-.164.162-2.253 2.785-4.642 5.83-2.389 3.044-4.39 5.573-4.446 5.62-.057.047-2.059 1.393-4.449 2.99C2.106 17.922.93 18.738.792 18.916a1.375 1.375 0 0 0-.245 1.198c.067.239.845 1.438 3.39 5.225 1.816 2.704 3.371 4.991 3.456 5.084.34.372.995.54 1.48.38.109-.036.819-.48 1.577-.985.758-.506 1.405-.935 1.438-.954.034-.02.35.19.704.466s.749.55.878.61c.36.164.829.144 1.205-.052.284-.148.51-.416 2.748-3.26l2.44-3.098 4.809-3.21c2.645-1.765 4.897-3.292 5.005-3.393.109-.1.247-.291.307-.424.132-.29.147-.836.031-1.112-.044-.107-.429-.714-.854-1.349a34.512 34.512 0 0 1-.8-1.227c-.015-.04.397-.612.916-1.27 1.14-1.444 1.196-1.54 1.198-2.046 0-.31-.03-.436-.167-.684-.148-.269-.424-.504-2.37-2.02-1.211-.944-3.326-2.594-4.7-3.668-1.372-1.074-2.628-2.015-2.789-2.092a1.516 1.516 0 0 0-1.085-.065zm.264.856c-.093.038-7.135 8.924-7.328 9.247-.027.044.685-.415 1.582-1.02 1.773-1.197 1.864-1.237 2.12-.94.075.087.137.21.137.272 0 .252.033.228-7.36 5.15-1.42.945-2.904 1.939-3.299 2.21l-.718.49.116.226c.064.125.186.459.271.743.131.436.156.63.158 1.248.003.799-.082 1.26-.347 1.888a5.183 5.183 0 0 1-1.027 1.525l-.35.348 1.132 1.69c.79 1.182 1.157 1.684 1.219 1.666.048-.014.365-.123.704-.242.536-.19.703-.221 1.293-.246 1.407-.058 2.58.38 3.594 1.344.198.188.369.341.38.341.01 0 3.156-2.096 6.989-4.659l6.97-4.658-.17-.362c-.295-.633-.375-1.043-.376-1.913 0-.646.024-.874.132-1.247a4.969 4.969 0 0 1 1.266-2.144l.324-.317-1.153-1.705-1.152-1.706-.442.189a4.82 4.82 0 0 1-3.681.012 4.824 4.824 0 0 1-1.5-.983l-.391-.366-.422.27c-.232.147-.492.269-.577.269-.355 0-.544-.504-.279-.742.229-.205 3.929-2.666 4.177-2.779.503-.228 1.277-.066 1.617.338.08.094 1.131 1.64 2.337 3.433 1.206 1.794 2.209 3.26 2.229 3.259.064-.007 1.675-2.109 1.751-2.285.152-.354.085-.419-2.483-2.422l-4.535-3.535a154.479 154.479 0 0 0-2.34-1.804c-.21-.142-.365-.165-.569-.083zm1.162 4.69c-.672.451-1.228.84-1.236.865-.008.024.11.166.264.316 1.023 1 2.805 1.317 4.124.732l.292-.13-.788-1.177c-.433-.648-.86-1.234-.947-1.303-.29-.228-.406-.181-1.71.696zm2.059 5.74c-.578.39-1.102.757-1.163.817-.148.142-.145.44.005.59.237.237.393.175 1.612-.638.63-.42 1.164-.808 1.185-.862.065-.17.04-.301-.085-.46-.227-.288-.392-.23-1.554.553zm-8.567-.094c-.89.161-1.714.53-2.491 1.112a5.72 5.72 0 0 0-2.006 6.258 5.549 5.549 0 0 0 1.412 2.34 5.818 5.818 0 0 0 2.508 1.503c.525.15.744.15.882-.003.13-.143.144-.49.024-.61-.047-.047-.322-.153-.61-.237-1.373-.397-2.45-1.283-3.058-2.516-.378-.767-.505-1.312-.505-2.167 0-1.077.296-2.002.917-2.863 1.053-1.46 2.909-2.241 4.666-1.964 1.165.183 2.33.83 3.02 1.674 1.135 1.392 1.45 3.19.846 4.844-.477 1.307-1.522 2.345-2.894 2.876-.456.176-.562.242-.62.38-.055.133-.053.202.01.331.124.26.303.319.658.217 1.573-.452 3.1-1.886 3.665-3.445.458-1.264.492-2.688.09-3.868-.541-1.595-1.751-2.875-3.339-3.535-.897-.373-2.187-.506-3.175-.327zm12.89 1.419c-.577.652-1.005 1.754-1.005 2.585 0 .402.143 1.11.297 1.466.07.164.139.298.151.298.084 0 2.491-1.66 2.54-1.751.151-.282.08-.44-.761-1.685-.453-.67-.845-1.226-.873-1.236-.027-.009-.184.136-.35.323zm-14.222.9c-.192.15-.204.4-.033.675l.122.197-.123.172c-.509.714-.338 1.866.34 2.296.372.235.665.302 1.185.272l.442-.025.627.94c.614.921.623.94.495 1.01-.072.039-.299.09-.505.112-.245.026-.412.078-.483.15-.16.158-.14.436.042.617.144.144.173.15.57.113.242-.022.548-.098.726-.179l.307-.14.125.2c.21.34.455.406.722.197.2-.158.205-.431.011-.694l-.143-.193.199-.301c.252-.383.345-.76.309-1.256-.07-.973-.725-1.641-1.637-1.669a4.59 4.59 0 0 0-.67.034l-.295.044-.485-.712c-.527-.774-.53-.809-.088-.81.294-.001.476-.137.526-.393.029-.15.007-.215-.115-.336-.124-.124-.205-.15-.466-.15-.174 0-.445.038-.602.086-.263.078-.292.077-.342-.013-.11-.196-.326-.366-.465-.366a.586.586 0 0 0-.296.121zm.589 1.732c-.072.071-.041.49.048.663.118.228.31.352.543.352h.193l-.354-.527c-.374-.555-.37-.55-.43-.488zM2.796 18.536c-.645.43-1.221.837-1.281.904-.236.265-.165.438.727 1.772l.835 1.249.33-.351c.391-.415.773-1.121.913-1.69.126-.51.126-1.367 0-1.852-.111-.427-.26-.814-.313-.814-.021 0-.566.352-1.21.782zm13.05-.682c0 .073.952 1.48 1.002 1.48.027 0 .079-.102.117-.228.141-.472-.066-.995-.479-1.208-.169-.087-.64-.12-.64-.044zm-7.48 4.102c-.306.175-1.986 1.31-2.124 1.436-.273.248-.077.743.293.743.153 0 2.276-1.369 2.434-1.569.105-.132.09-.388-.03-.53-.144-.17-.363-.2-.572-.08zm6.694 4.783c-1.254.841-2.277 1.549-2.274 1.572.008.053.818.7.992.793a.504.504 0 0 0 .527-.023c.13-.09 3.093-3.83 3.056-3.856-.011-.008-1.047.673-2.3 1.514zm-7.69.293c-.358.079-.84.247-.929.326-.027.024.324.593.78 1.265.864 1.272 1.01 1.421 1.32 1.344.118-.03 2.392-1.508 2.554-1.66.016-.015-.142-.185-.35-.377-.863-.795-2.21-1.153-3.374-.898z" fill="#454545"/>
</svg>
